<?xml version="1.0" encoding="UTF-8" standalone="no"?>
<!-- Created with Inkscape (http://www.inkscape.org/) -->

<svg
   xmlns:dc="http://purl.org/dc/elements/1.1/"
   xmlns:cc="http://creativecommons.org/ns#"
   xmlns:rdf="http://www.w3.org/1999/02/22-rdf-syntax-ns#"
   xmlns:svg="http://www.w3.org/2000/svg"
   xmlns="http://www.w3.org/2000/svg"
   xmlns:sodipodi="http://sodipodi.sourceforge.net/DTD/sodipodi-0.dtd"
   xmlns:inkscape="http://www.inkscape.org/namespaces/inkscape"
   width="1189mm"
   height="841mm"
   viewBox="0 0 4212.9922 2979.9212"
   id="svg2"
   version="1.1"
   inkscape:version="0.91 r13725"
   sodipodi:docname="TreadmillSketch.svg">
  <title
     id="title4159">TreadmillSketch</title>
  <defs
     id="defs4">
    <marker
       inkscape:stockid="Arrow2Mstart"
       orient="auto"
       refY="0.0"
       refX="0.0"
       id="marker9438"
       style="overflow:visible"
       inkscape:isstock="true">
      <path
         id="path9440"
         style="fill-rule:evenodd;stroke-width:0.625;stroke-linejoin:round;stroke:#000000;stroke-opacity:1;fill:#000000;fill-opacity:1"
         d="M 8.7185878,4.0337352 L -2.2072895,0.016013256 L 8.7185884,-4.0017078 C 6.9730900,-1.6296469 6.9831476,1.6157441 8.7185878,4.0337352 z "
         transform="scale(0.6) translate(0,0)" />
    </marker>
    <marker
       inkscape:stockid="Arrow2Mend"
       orient="auto"
       refY="0.0"
       refX="0.0"
       id="marker9170"
       style="overflow:visible;"
       inkscape:isstock="true">
      <path
         id="path9172"
         style="fill-rule:evenodd;stroke-width:0.625;stroke-linejoin:round;stroke:#000000;stroke-opacity:1;fill:#000000;fill-opacity:1"
         d="M 8.7185878,4.0337352 L -2.2072895,0.016013256 L 8.7185884,-4.0017078 C 6.9730900,-1.6296469 6.9831476,1.6157441 8.7185878,4.0337352 z "
         transform="scale(0.6) rotate(180) translate(0,0)" />
    </marker>
    <marker
       inkscape:isstock="true"
       style="overflow:visible;"
       id="marker8992"
       refX="0.0"
       refY="0.0"
       orient="auto"
       inkscape:stockid="Arrow2Mend"
       inkscape:collect="always">
      <path
         transform="scale(0.6) rotate(180) translate(0,0)"
         d="M 8.7185878,4.0337352 L -2.2072895,0.016013256 L 8.7185884,-4.0017078 C 6.9730900,-1.6296469 6.9831476,1.6157441 8.7185878,4.0337352 z "
         style="fill-rule:evenodd;stroke-width:0.625;stroke-linejoin:round;stroke:#000000;stroke-opacity:1;fill:#000000;fill-opacity:1"
         id="path8994" />
    </marker>
    <marker
       inkscape:stockid="Arrow2Mend"
       orient="auto"
       refY="0"
       refX="0"
       id="marker9170-6"
       style="overflow:visible"
       inkscape:isstock="true">
      <path
         inkscape:connector-curvature="0"
         id="path9172-0"
         style="fill:#000000;fill-opacity:1;fill-rule:evenodd;stroke:#000000;stroke-width:0.625;stroke-linejoin:round;stroke-opacity:1"
         d="M 8.7185878,4.0337352 -2.2072895,0.01601326 8.7185884,-4.0017078 c -1.7454984,2.3720609 -1.7354408,5.6174519 -6e-7,8.035443 z"
         transform="scale(-0.6,-0.6)" />
    </marker>
    <marker
       inkscape:stockid="Arrow2Mstart"
       orient="auto"
       refY="0"
       refX="0"
       id="marker9438-6"
       style="overflow:visible"
       inkscape:isstock="true">
      <path
         inkscape:connector-curvature="0"
         id="path9440-2"
         style="fill:#000000;fill-opacity:1;fill-rule:evenodd;stroke:#000000;stroke-width:0.625;stroke-linejoin:round;stroke-opacity:1"
         d="M 8.7185878,4.0337352 -2.2072895,0.01601326 8.7185884,-4.0017078 c -1.7454984,2.3720609 -1.7354408,5.6174519 -6e-7,8.035443 z"
         transform="scale(0.6,0.6)" />
    </marker>
    <marker
       inkscape:isstock="true"
       style="overflow:visible"
       id="marker8992-6"
       refX="0"
       refY="0"
       orient="auto"
       inkscape:stockid="Arrow2Mend"
       inkscape:collect="always">
      <path
         inkscape:connector-curvature="0"
         transform="scale(-0.6,-0.6)"
         d="M 8.7185878,4.0337352 -2.2072895,0.01601326 8.7185884,-4.0017078 c -1.7454984,2.3720609 -1.7354408,5.6174519 -6e-7,8.035443 z"
         style="fill:#000000;fill-opacity:1;fill-rule:evenodd;stroke:#000000;stroke-width:0.625;stroke-linejoin:round;stroke-opacity:1"
         id="path8994-1" />
    </marker>
  </defs>
  <sodipodi:namedview
     id="base"
     pagecolor="#ffffff"
     bordercolor="#666666"
     borderopacity="1.0"
     inkscape:pageopacity="0.0"
     inkscape:pageshadow="2"
     inkscape:zoom="0.125"
     inkscape:cx="989.90326"
     inkscape:cy="-239.59421"
     inkscape:document-units="mm"
     inkscape:current-layer="layer1"
     showgrid="true"
     inkscape:window-width="1920"
     inkscape:window-height="1115"
     inkscape:window-x="0"
     inkscape:window-y="0"
     inkscape:window-maximized="1"
     guidetolerance="10000"
     showguides="true"
     inkscape:snap-intersection-paths="true"
     inkscape:snap-bbox="false"
     inkscape:snap-object-midpoints="false"
     inkscape:snap-smooth-nodes="true"
     inkscape:snap-others="false"
     inkscape:object-nodes="true"
     gridtolerance="1"
     inkscape:snap-path-clip="true"
     inkscape:snap-path-mask="true"
     inkscape:snap-nodes="false"
     inkscape:snap-grids="false"
     inkscape:snap-to-guides="false">
    <inkscape:grid
       type="xygrid"
       id="grid4161" />
  </sodipodi:namedview>
  <metadata
     id="metadata7">
    <rdf:RDF>
      <cc:Work
         rdf:about="">
        <dc:format>image/svg+xml</dc:format>
        <dc:type
           rdf:resource="http://purl.org/dc/dcmitype/StillImage" />
        <dc:title>TreadmillSketch</dc:title>
      </cc:Work>
    </rdf:RDF>
  </metadata>
  <g
     inkscape:label="Layer 1"
     inkscape:groupmode="layer"
     id="layer1"
     transform="translate(0,1927.5589)">
    <g
       id="g16892"
       transform="translate(30,0)">
      <path
         sodipodi:nodetypes="csccsccccsscccsssc"
         inkscape:connector-curvature="0"
         id="path4334"
         d="m -867.68071,-1151.0553 c -123.18754,10e-4 -223.40499,99.3444 -223.40499,221.45704 0,122.11253 100.21745,221.45592 223.40499,221.45702 l 0,-32.74023 c -105.33764,-10e-4 -190.37649,-84.29836 -190.37649,-188.71679 0,-104.41854 85.03875,-188.71574 190.37649,-188.71684 z m 0.002,0 0,32.7402 4452.49811,0 c 105.3377,0 190.3766,84.2983 190.3766,188.71684 0,104.41849 -85.0389,188.71569 -190.3766,188.71679 l -4452.49811,0 0,32.74023 4452.49811,0 c 123.1876,0 223.4049,-99.34442 223.4049,-221.45702 0,-122.11264 -100.2174,-221.45594 -223.4049,-221.45704 z"
         style="color:#000000;font-style:normal;font-variant:normal;font-weight:normal;font-stretch:normal;font-size:medium;line-height:normal;font-family:sans-serif;text-indent:0;text-align:start;text-decoration:none;text-decoration-line:none;text-decoration-style:solid;text-decoration-color:#000000;letter-spacing:normal;word-spacing:normal;text-transform:none;direction:ltr;block-progression:tb;writing-mode:lr-tb;baseline-shift:baseline;text-anchor:start;white-space:normal;clip-rule:nonzero;display:inline;overflow:visible;visibility:visible;opacity:1;isolation:auto;mix-blend-mode:normal;color-interpolation:sRGB;color-interpolation-filters:linearRGB;solid-color:#000000;solid-opacity:1;fill:#000000;fill-opacity:1;fill-rule:nonzero;stroke:none;stroke-width:177.1653595;stroke-linecap:square;stroke-linejoin:miter;stroke-miterlimit:4;stroke-dasharray:none;stroke-dashoffset:0;stroke-opacity:1;color-rendering:auto;image-rendering:auto;shape-rendering:auto;text-rendering:auto;enable-background:accumulate" />
      <path
         sodipodi:nodetypes="cccc"
         inkscape:connector-curvature="0"
         id="path5941"
         d="m -730.06546,-1085.2308 2088.63446,0 2088.635,0 0,0"
         style="fill:none;fill-opacity:1;fill-rule:evenodd;stroke:#000000;stroke-width:32.7401619;stroke-linecap:round;stroke-linejoin:miter;stroke-miterlimit:4;stroke-dasharray:none;stroke-opacity:0.82539685" />
      <path
         sodipodi:nodetypes="cccc"
         inkscape:connector-curvature="0"
         id="path5941-7"
         d="m -730.06547,-773.9629 2088.63447,0 2088.635,0 0,0"
         style="fill:none;fill-opacity:1;fill-rule:evenodd;stroke:#000000;stroke-width:32.7401619;stroke-linecap:round;stroke-linejoin:miter;stroke-miterlimit:4;stroke-dasharray:none;stroke-opacity:0.82539685" />
      <g
         transform="matrix(0.9119516,0,0,0.9119516,-1352.608,-540.08517)"
         id="g4269">
        <path
           style="color:#000000;font-style:normal;font-variant:normal;font-weight:normal;font-stretch:normal;font-size:medium;line-height:normal;font-family:sans-serif;text-indent:0;text-align:start;text-decoration:none;text-decoration-line:none;text-decoration-style:solid;text-decoration-color:#000000;letter-spacing:normal;word-spacing:normal;text-transform:none;direction:ltr;block-progression:tb;writing-mode:lr-tb;baseline-shift:baseline;text-anchor:start;white-space:normal;clip-rule:nonzero;display:inline;overflow:visible;visibility:visible;opacity:1;isolation:auto;mix-blend-mode:normal;color-interpolation:sRGB;color-interpolation-filters:linearRGB;solid-color:#000000;solid-opacity:1;fill:#000000;fill-opacity:1;fill-rule:nonzero;stroke:none;stroke-width:35.43307114;stroke-linecap:butt;stroke-linejoin:miter;stroke-miterlimit:4;stroke-dasharray:none;stroke-dashoffset:0;stroke-opacity:1;color-rendering:auto;image-rendering:auto;shape-rendering:auto;text-rendering:auto;enable-background:accumulate"
           d="m 668.94456,-564.56863 c -75.76246,-75.76247 -199.13499,-75.76381 -274.89745,-10e-4 -75.76246,75.76246 -75.76246,199.13633 0,274.8988 75.76247,75.76247 199.13496,75.76109 274.89743,-10e-4 75.76246,-75.76247 75.76249,-199.13361 2e-5,-274.89608 z m -25.05399,25.05399 c 57.98496,57.98496 61.9227,149.07347 11.83438,211.56717 L 432.3234,-551.34902 c 62.49371,-50.08831 153.58222,-46.15056 211.56717,11.83438 z m -236.6225,13.22095 223.40154,223.40156 c -62.49378,50.08963 -153.58173,46.15104 -211.56716,-11.83439 -57.98541,-57.98542 -61.92401,-149.07337 -11.83438,-211.56717 z"
           id="path4155"
           inkscape:connector-curvature="0" />
        <path
           style="fill:#a0a0a0;stroke:none;stroke-width:1px;stroke-linecap:butt;stroke-linejoin:miter;stroke-opacity:1"
           d="m 522.50592,1659.0641 c -23.58356,-1.3384 -47.44121,-8.2348 -67.79981,-19.5984 -35.30976,-19.7089 -62.02282,-52.0929 -74.33321,-90.1135 -3.41552,-10.5488 -5.68475,-21.2989 -6.98753,-33.1024 -0.8358,-7.5724 -0.83734,-24.2562 -0.003,-31.7338 2.92766,-26.2364 11.25111,-49.6443 25.22007,-70.9259 3.01611,-4.5951 8.27735,-11.86 8.60376,-11.8805 0.0973,-0.01 50.35213,50.1643 111.67731,111.4897 l 111.50032,111.5007 -3.56823,2.7023 c -29.60268,22.4183 -67.0261,33.7777 -104.30974,31.6618 z"
           id="path4265"
           inkscape:connector-curvature="0"
           transform="translate(0,-1927.5589)" />
        <path
           style="fill:#a0a0a0;stroke:none;stroke-width:1px;stroke-linecap:butt;stroke-linejoin:miter;stroke-opacity:1"
           d="m 544.03121,1487.7943 c -66.20665,-66.2191 -111.39188,-111.6717 -111.1667,-111.8245 0.20867,-0.1416 1.87921,-1.3879 3.71231,-2.7695 7.74487,-5.8375 15.44679,-10.5739 24.62389,-15.1427 16.79434,-8.3611 35.45752,-13.7256 55.07656,-15.831 5.65538,-0.607 24.82912,-0.6013 30.40559,0.01 12.98931,1.4214 24.32041,3.8759 35.7089,7.7349 55.71128,18.878 96.7728,67.5284 106.02527,125.6208 1.39709,8.7717 1.76449,13.9133 1.76848,24.7487 0.004,11.5894 -0.40434,16.8011 -2.10872,26.8966 -3.87871,22.9745 -13.50073,46.0638 -27.11442,65.0648 -1.86608,2.6045 -3.84112,5.2585 -4.38897,5.8977 l -0.99609,1.1622 -111.5461,-111.5669 z"
           id="path4267"
           inkscape:connector-curvature="0"
           transform="translate(0,-1927.5589)" />
      </g>
      <g
         transform="matrix(0,-0.91195076,0.91195076,0,3974.8386,-444.90024)"
         id="g4274">
        <path
           inkscape:connector-curvature="0"
           id="path4276"
           d="m 668.94456,-564.56863 c -75.76246,-75.76247 -199.13499,-75.76381 -274.89745,-10e-4 -75.76246,75.76246 -75.76246,199.13633 0,274.8988 75.76247,75.76247 199.13496,75.76109 274.89743,-10e-4 75.76246,-75.76247 75.76249,-199.13361 2e-5,-274.89608 z m -25.05399,25.05399 c 57.98496,57.98496 61.9227,149.07347 11.83438,211.56717 L 432.3234,-551.34902 c 62.49371,-50.08831 153.58222,-46.15056 211.56717,11.83438 z m -236.6225,13.22095 223.40154,223.40156 c -62.49378,50.08963 -153.58173,46.15104 -211.56716,-11.83439 -57.98541,-57.98542 -61.92401,-149.07337 -11.83438,-211.56717 z"
           style="color:#000000;font-style:normal;font-variant:normal;font-weight:normal;font-stretch:normal;font-size:medium;line-height:normal;font-family:sans-serif;text-indent:0;text-align:start;text-decoration:none;text-decoration-line:none;text-decoration-style:solid;text-decoration-color:#000000;letter-spacing:normal;word-spacing:normal;text-transform:none;direction:ltr;block-progression:tb;writing-mode:lr-tb;baseline-shift:baseline;text-anchor:start;white-space:normal;clip-rule:nonzero;display:inline;overflow:visible;visibility:visible;opacity:1;isolation:auto;mix-blend-mode:normal;color-interpolation:sRGB;color-interpolation-filters:linearRGB;solid-color:#000000;solid-opacity:1;fill:#000000;fill-opacity:1;fill-rule:nonzero;stroke:none;stroke-width:35.43307114;stroke-linecap:butt;stroke-linejoin:miter;stroke-miterlimit:4;stroke-dasharray:none;stroke-dashoffset:0;stroke-opacity:1;color-rendering:auto;image-rendering:auto;shape-rendering:auto;text-rendering:auto;enable-background:accumulate" />
        <path
           transform="translate(0,-1927.5589)"
           inkscape:connector-curvature="0"
           id="path4278"
           d="m 522.50592,1659.0641 c -23.58356,-1.3384 -47.44121,-8.2348 -67.79981,-19.5984 -35.30976,-19.7089 -62.02282,-52.0929 -74.33321,-90.1135 -3.41552,-10.5488 -5.68475,-21.2989 -6.98753,-33.1024 -0.8358,-7.5724 -0.83734,-24.2562 -0.003,-31.7338 2.92766,-26.2364 11.25111,-49.6443 25.22007,-70.9259 3.01611,-4.5951 8.27735,-11.86 8.60376,-11.8805 0.0973,-0.01 50.35213,50.1643 111.67731,111.4897 l 111.50032,111.5007 -3.56823,2.7023 c -29.60268,22.4183 -67.0261,33.7777 -104.30974,31.6618 z"
           style="fill:#a0a0a0;stroke:none;stroke-width:1px;stroke-linecap:butt;stroke-linejoin:miter;stroke-opacity:1" />
        <path
           transform="translate(0,-1927.5589)"
           inkscape:connector-curvature="0"
           id="path4280"
           d="m 544.03121,1487.7943 c -66.20665,-66.2191 -111.39188,-111.6717 -111.1667,-111.8245 0.20867,-0.1416 1.87921,-1.3879 3.71231,-2.7695 7.74487,-5.8375 15.44679,-10.5739 24.62389,-15.1427 16.79434,-8.3611 35.45752,-13.7256 55.07656,-15.831 5.65538,-0.607 24.82912,-0.6013 30.40559,0.01 12.98931,1.4214 24.32041,3.8759 35.7089,7.7349 55.71128,18.878 96.7728,67.5284 106.02527,125.6208 1.39709,8.7717 1.76449,13.9133 1.76848,24.7487 0.004,11.5894 -0.40434,16.8011 -2.10872,26.8966 -3.87871,22.9745 -13.50073,46.0638 -27.11442,65.0648 -1.86608,2.6045 -3.84112,5.2585 -4.38897,5.8977 l -0.99609,1.1622 -111.5461,-111.5669 z"
           style="fill:#a0a0a0;stroke:none;stroke-width:1px;stroke-linecap:butt;stroke-linejoin:miter;stroke-opacity:1" />
      </g>
      <path
         sodipodi:nodetypes="csc"
         inkscape:connector-curvature="0"
         id="path7156"
         d="m -880.1049,-676.7827 c -139.6262,8e-4 -252.8161,-113.18827 -252.8164,-252.8145 -8e-4,-139.627 113.1894,-252.8172 252.8164,-252.8164"
         style="opacity:1;fill:none;fill-opacity:1;fill-rule:evenodd;stroke:#000000;stroke-width:10.62992096;stroke-linecap:round;stroke-linejoin:miter;stroke-miterlimit:4;stroke-dasharray:none;stroke-dashoffset:0;stroke-opacity:1;marker-end:url(#marker9170)" />
      <path
         inkscape:connector-curvature="0"
         id="path7165"
         d="m 264.1254,-1180.9994 -1144.2319,-1.4142 0,0 0,0"
         style="fill:none;fill-rule:evenodd;stroke:#000000;stroke-width:10.62992096;stroke-linecap:butt;stroke-linejoin:miter;stroke-miterlimit:0;stroke-dasharray:none;stroke-opacity:1;marker-start:url(#marker9438)" />
      <path
         inkscape:connector-curvature="0"
         id="path7165-3"
         d="m -481.2967,-675.3685 -398.8082,-1.4142 0,0 0,0"
         style="fill:none;fill-rule:evenodd;stroke:#000000;stroke-width:10.62992096;stroke-linecap:butt;stroke-linejoin:miter;stroke-miterlimit:4;stroke-dasharray:none;stroke-opacity:1;marker-end:url(#marker8992)" />
      <path
         sodipodi:nodetypes="csc"
         inkscape:connector-curvature="0"
         id="path7156-7"
         d="m 3597.2434,-1182.4139 c 139.6262,-8e-4 252.8161,113.1883 252.8164,252.81452 8e-4,139.62697 -113.1894,252.81719 -252.8164,252.8164"
         style="opacity:1;fill:none;fill-opacity:1;fill-rule:evenodd;stroke:#000000;stroke-width:10.62992096;stroke-linecap:round;stroke-linejoin:miter;stroke-miterlimit:4;stroke-dasharray:none;stroke-dashoffset:0;stroke-opacity:1;marker-end:url(#marker9170-6)" />
      <path
         inkscape:connector-curvature="0"
         id="path7165-9"
         d="m 2453.0131,-678.19718 1144.2319,1.4142 0,0 0,0"
         style="fill:none;fill-rule:evenodd;stroke:#000000;stroke-width:10.62992096;stroke-linecap:butt;stroke-linejoin:miter;stroke-miterlimit:0;stroke-dasharray:none;stroke-opacity:1;marker-start:url(#marker9438-6)" />
      <path
         inkscape:connector-curvature="0"
         id="path7165-3-2"
         d="m 3198.4352,-1183.8281 398.8082,1.4142 0,0 0,0"
         style="fill:none;fill-rule:evenodd;stroke:#000000;stroke-width:10.62992096;stroke-linecap:butt;stroke-linejoin:miter;stroke-miterlimit:4;stroke-dasharray:none;stroke-opacity:1;marker-end:url(#marker8992-6)" />
    </g>
    <g
       id="g9595"
       transform="matrix(-2.6062709,0.24450396,0.20992613,3.0468471,1635.3246,-3286.2163)">
      <g
         id="g16474">
        <path
           inkscape:connector-curvature="0"
           style="fill:#c27575;stroke:#000000;stroke-width:0.49599326;stroke-linecap:round;stroke-linejoin:round"
           sodipodi:nodetypes="ssssscsssss"
           d="m -264.76391,685.25321 c 0,0 -14.9334,-2.25799 -27.648,-0.7738 -23.60872,2.75587 -46.84337,9.6446 -70.55337,11.1446 -26.58,1.7 -52.44831,5.4258 -79.28347,7.7784 -17.09349,1.4986 -24.88298,0.2289 -39.33398,3.2545 -2.67246,0.5595 -13.41273,5.8098 -13.41273,5.8098 0,0 10.9927,-1.4199 18.7827,-2.8199 12.01,-2.2 23.9783,-1.5277 36.1383,-2.5277 24.65,-2.2 50.20086,-2.4674 74.90086,-3.9674 27.03,-1.7 52.60941,-5.09713 80.35342,-8.78209 10.1418,-1.34703 29.24627,2.88359 29.24627,2.88359"
           id="path4508" />
        <path
           inkscape:connector-curvature="0"
           style="fill:none;stroke:#b3b3b3;stroke-width:0.49599326;stroke-linecap:round;stroke-linejoin:round"
           sodipodi:nodetypes="cc"
           d="m 16.664087,662.65321 c 6.014,10 7.852,17.8 8.842,29"
           id="path4479" />
        <path
           inkscape:connector-curvature="0"
           style="fill:none;stroke:#b3b3b3;stroke-width:0.49599326;stroke-linecap:round;stroke-linejoin:round"
           sodipodi:nodetypes="cc"
           d="m 23.382087,660.15321 c 6.004,6 8.724,12.4 11.314,20.2"
           id="path4481" />
        <path
           inkscape:connector-curvature="0"
           style="fill:none;stroke:#b3b3b3;stroke-width:0.49599326;stroke-linecap:round;stroke-linejoin:round"
           sodipodi:nodetypes="cc"
           d="m 7.825087,664.45321 c 4.684,7 6.111,14.5 7.778,22.6"
           id="path4483" />
        <path
           inkscape:connector-curvature="0"
           style="fill:none;stroke:#b3b3b3;stroke-width:0.49599326;stroke-linecap:round;stroke-linejoin:round"
           sodipodi:nodetypes="cc"
           d="m 18.078087,647.85321 c 6.788,-2.1 12.228,-5.6 14.498,-9.9"
           id="path4485" />
        <path
           inkscape:connector-curvature="0"
           style="fill:none;stroke:#b3b3b3;stroke-width:0.49599326;stroke-linecap:round;stroke-linejoin:round"
           sodipodi:nodetypes="cc"
           d="m 23.028087,650.25321 c 3.628,-1.8 7.928,-3.3 13.438,-4.2"
           id="path4487" />
        <path
           inkscape:connector-curvature="0"
           style="fill:#ac9d93;stroke:#000000;stroke-width:0.49599326;stroke-linecap:round;stroke-linejoin:round"
           sodipodi:nodetypes="cssssssc"
           d="m -24.966913,623.25321 c 0,-1.1 -0.782,-6.2 -0.177,-9.2 0.446,-2.2 1.076,-4.7 2.74,-6.2 1.287,-1.2 3.219,-1.9 4.95,-1.7 1.236,0.2 2.458,1 3.182,2 0.934,1.3 1.134,3 1.061,4.6 -0.052,1.2 -0.599,2.3 -1.061,3.3 -0.914,2.1 -3.359,5.9 -3.359,5.9"
           id="path4502" />
        <path
           inkscape:connector-curvature="0"
           style="fill:#ac9d93;stroke:#000000;stroke-width:0.49599326;stroke-linecap:round;stroke-linejoin:round"
           sodipodi:nodetypes="cccccccssscsssssssssssssssssscsssssssscccccccccsc"
           d="m -177.43391,691.25321 c -5.72,0 -47.53843,12.62457 -47.53843,12.62457 1.51,2.3 33.97148,7.43233 33.76148,10.03233 l -3.1905,-0.0476 0.0105,2.74761 c -3.37,-5 -6.72,-4.8 -12.38,-5.5 1.74,1.8 2.08,3.6 2.48,6 0,0 -2.94,-2.6 -4.77,-3 -4.45,-1.1 -19.11438,-1.80751 -23.66438,-1.70751 -5.13,0.1 -11.75,2.9 -15.38,-0.7 -0.84,-0.8 -0.18,-3.5 -0.18,-3.5 0,0 6.37133,-8.84939 4.56133,-7.74939 -2.96,1.8 -6.64,3.1 -10.08,2.7 -3.09,-0.4 -6.22,-2.2 -8.13,-4.6 -2.92,-3.8 -3.67,-9 -3.71,-13.8 -0.08,-7.8 2.68,-15.6 5.65,-22.8 3.33,-8.1 7.36,-16.5 13.79,-22.5 7.63,-7.2 18,-11.1 27.76,-14.6 10.52,-3.8 21.85,-4.8 32.88,-6.6 15.239,-2.5 30.545,-4.8 45.958,-5.8 13.231,-0.8 26.52,0.3 39.773997,0 4.954,-0.1 9.894,-0.7 14.85,-0.7 10.034,0 20.06,0.8 30.052,1.8 12.48,1.1 25.123,1.8 37.299,4.7 6.647,1.7 13.456,3.5 19.269,7.1 4.073,2.5 6.863,6.7 10.43,9.9 4.946,4.4 10.315,8.4 15.198,12.9 1.66,1.5 4.04,2.7 4.78,4.8 0.51,1.4 0.21,3.2 -0.53,4.6 -0.99,1.8 -4.78,3.9 -4.78,3.9 0,0 -3.151,5.5 -5.829,6.9 -3.314,1.7 -7.43,0.5 -11.137,0.8 -4.25,0.4 -8.461,1.6 -12.728,1.5 -4.116,-0.1 -8.081,-1.9 -12.198,-2 -6.522,-0.1 -13.007,1.2 -19.445,2.2 -3.182,0.5 -7.091,-0.1 -9.458,2.1 -1.669,1.5 -2.51,4.3 -1.944,6.5 0.813,3.2 4.241,5.1 6.982,6.9 2.628,1.7 8.751,3.4 8.751,3.4 5.823,-2.3 10.608,-3.4 15.026,2.6 5.242,2.1 4.116,2.9 5.568,4.2 -4.856,-1.2 -9.728,-1.8 -14.584,-3 2.686,2.8 5.145,4.9 6.453,8.7 -4.793,-2.5 -9.053,-4.9 -14.584,-5.2 1.178,3.4 -1.826,4.7 -3.182,6.8 -0.443,-2.3 -0.635,-4.8 -1.503,-6.6 -4.387,1.1 -8.747,-0.5 -13.081,-1.4 0,0 -44.138,-7 -51.972997,-7.4 -29.906,-1.7 -49.748,3 -75.304,2.8 z"
           id="path4506" />
        <path
           inkscape:connector-curvature="0"
           style="fill:#c27575;stroke:#ac9d93;stroke-width:1.48797977;stroke-linecap:round;stroke-linejoin:round"
           sodipodi:nodetypes="sssssss"
           d="m -43.527913,631.85321 c 1.289,-6.2 -2.461,-9.5 -3.271,-13.9 -0.561,-3.1 -0.508,-6.7 1.149,-9.4 2.518,-4.1 4.994,-5.1 9.723,-4.5 2.498,0.3 5.05,2.3 5.922,4.7 2.996,8.1 3.458,16.3 -1.679,23.1 -5.187,6.9 -13.018,5.6 -11.844,0 z"
           id="path4504" />
        <ellipse
           style="fill:#a02c2c"
           id="path4477"
           cx="-3.5014782"
           cy="636.73975"
           rx="3.8890872"
           ry="3.2703688" />
        <ellipse
           transform="matrix(0.86735694,0.49768659,-0.49767181,0.86736542,0,0)"
           style="fill:#ffffff"
           id="path9055"
           cx="314.57144"
           cy="552.60968"
           rx="0.98212987"
           ry="0.66965926" />
        <path
           inkscape:connector-curvature="0"
           style="color:#000000;text-indent:0;text-transform:none;block-progression:tb;fill:none;stroke:#000000;stroke-width:0.49599326"
           sodipodi:nodetypes="cccccscsc"
           d="m -32.549913,634.95321 c 6.765,-6.5 7.052,-18.3 3.96,-26.7 -1.105,-3 -3.991,-5.3 -7.156,-5.7 -1.251,-0.1 -2.393,-0.2 -3.469,-0.1 -1.076,0.1 -2.094,0.3 -3.031,0.7 -1.875,0.9 -3.343,2.4 -4.688,4.6 -1.967,3.2 -1.945,7.1 -1.344,10.4 0.466,2.6 1.676,4.6 2.5,6.6 0.825,2 1.356,4 0.782,6.8"
           id="path9565" />
        <path
           d="m -23.152913,688.45321 c -2.098,0 -4.405,0.8 -6.937,1.8 a 0.50005,0.50005 0 0 1 -0.313,0 c 0,0 -1.563,-0.4 -3.437,-1.1 -0.315,-0.1 -0.642,-0.2 -0.969,-0.3 -0.986,3 -1.323,6 -3.906,8.2 0.508,-0.1 1.026,-0.2 1.531,-0.3 a 0.50005,0.50005 0 0 1 0.562,0.3 c 0.793,1.6 1.052,3.7 1.376,5.7 0.633,-0.8 1.301,-1.5 1.812,-2.2 0.718,-0.9 1.102,-1.8 0.562,-3.4 a 0.50005,0.50005 0 0 1 0.5,-0.6 c 5.161,0.3 9.233,2.4 13.532,4.6 -1.336,-2.9 -3.404,-4.7 -5.782,-7.2 a 0.50005,0.50005 0 0 1 0.469,-0.8 c 4.369,1 8.794,1.6 13.219,2.6 -0.143,-0.3 -0.273,-0.5 -0.469,-0.7 -0.479,-0.5 -1.44,-1.2 -4.031,-2.2 a 0.50005,0.50005 0 0 1 -0.219,-0.2 c -2.149,-3 -4.29,-4 -6.625,-4.2 l -0.875,0 z"
           inkscape:connector-curvature="0"
           style="fill:#c27575"
           id="path9571" />
        <path
           sodipodi:nodetypes="ccccccccccccsccccccccccc"
           d="m -192.25613,713.47643 c 0.0241,-0.3703 -5.73989,-1.86443 -6.98105,-2.24474 l -11.96072,-2.76378 c -1.85633,-0.88116 -12.89447,-2.29013 -14.18447,-4.29013 -0.16142,-0.2261 -0.10753,-0.5405 0.12,-0.7 -4.28031,-0.78251 3.64545,1.56851 -2.88106,-0.39515 0,0 -2.04411,-0.71559 -4.02411,-0.81559 -1.78,-0.2 -2.42078,-0.71207 -4.20078,-0.61207 -2.71,0.2 -0.38487,-2.38638 -3.21735,-1.97458 -3.78758,0.2726 -4.45285,3.63004 -5.80285,5.13004 0.20824,0.1209 -2.32602,3.26527 -2.40672,3.49217 0,0 -0.16,0.6 -0.22,1.3 -0.03,0.4 -0.02,0.8 0.03,1.1 0.05,0.3 0.13,0.5 0.22,0.6 1.66,1.7 4.05,1.9 6.75,1.7 2.69,-0.3 5.63,-1 8.28,-1.1 4.4,-0.1 19.09438,0.60751 23.77438,1.70751 1.07,0.2 2.26,1 3.25,1.7 0.35,0.3 0.35,0.3 0.62,0.5 -0.33,-1.6 -0.73,-3 -2.03,-4.4 -0.25002,-0.3333 -0.007,-0.8083 0.41,-0.8 2.81,0.3 5.1,0.5 7.16,1.1 1.69,0.6 3.2,1.8 4.65,3.5 l 0.13052,-1.74817"
           inkscape:connector-curvature="0"
           style="fill:#c27575"
           id="path9583" />
      </g>
    </g>
  </g>
</svg>
